<svg width="600" height="510" viewBox="0 0 600 510" fill="none" xmlns="http://www.w3.org/2000/svg">
<path d="M0 464.109L278.23 0V226.859C265.188 226.859 259.102 228.591 247.799 234.652V109.966L39.1261 457.182L95.6416 509.134L50.4292 510L0 464.109Z" fill="url(#paint0_linear_7_91)"/>
<path d="M278.23 272.75C278.23 327.301 283.019 402.025 211.281 438.132L199.108 411.29C256.493 374.924 247.799 296.995 247.799 284.007C151.288 337.691 181.719 447.657 224.323 477.097V509.134H126.942L95.6416 477.097H181.719C126.942 427.742 139.115 264.958 278.23 243.311V272.75Z" fill="url(#paint1_linear_7_91)"/>
<path d="M600 464.109L321.77 0V226.859C334.812 226.859 340.898 228.591 352.201 234.652V109.966L560.874 457.182L504.358 509.134L549.571 510L600 464.109Z" fill="url(#paint2_linear_7_91)"/>
<path d="M321.77 272.75C321.77 327.301 316.981 402.025 388.719 438.132L400.892 411.29C343.507 374.924 352.201 296.995 352.201 284.007C448.712 337.691 418.281 447.657 375.677 477.097V509.134H473.058L504.358 477.097H418.281C473.058 427.742 460.885 264.958 321.77 243.311V272.75Z" fill="url(#paint3_linear_7_91)"/>
<defs>
<linearGradient id="paint0_linear_7_91" x1="4.34734" y1="1.74386e-06" x2="276.468" y2="511.803" gradientUnits="userSpaceOnUse">
<stop offset="0.607292" stop-color="#183D8A"/>
<stop offset="1" stop-color="#9BB0DA"/>
</linearGradient>
<linearGradient id="paint1_linear_7_91" x1="4.34734" y1="1.74386e-06" x2="276.468" y2="511.803" gradientUnits="userSpaceOnUse">
<stop offset="0.607292" stop-color="#183D8A"/>
<stop offset="1" stop-color="#9BB0DA"/>
</linearGradient>
<linearGradient id="paint2_linear_7_91" x1="321.704" y1="6.06112" x2="598.166" y2="511.832" gradientUnits="userSpaceOnUse">
<stop offset="0.398958" stop-color="#183D8A"/>
<stop offset="1" stop-color="#9BB0DA"/>
</linearGradient>
<linearGradient id="paint3_linear_7_91" x1="321.704" y1="6.06112" x2="598.166" y2="511.832" gradientUnits="userSpaceOnUse">
<stop offset="0.398958" stop-color="#183D8A"/>
<stop offset="1" stop-color="#9BB0DA"/>
</linearGradient>
</defs>
</svg>
