<svg width="597" height="509" viewBox="0 0 597 509" fill="none" xmlns="http://www.w3.org/2000/svg">
<path d="M0 463.199L276.536 0V226.414C263.574 226.414 257.525 228.143 246.29 234.192V109.75L38.8879 456.285L95.0594 508.136L50.1222 509L0 463.199Z" fill="url(#paint0_linear_7_91)"/>
<path d="M276.536 272.216C276.536 326.659 281.296 401.237 209.995 437.273L197.896 410.484C254.932 374.188 246.29 296.413 246.29 283.45C150.367 337.029 180.613 446.779 222.958 476.161V508.136H126.17L95.0594 476.161H180.613C126.17 426.903 138.268 264.438 276.536 242.834V272.216Z" fill="url(#paint1_linear_7_91)"/>
<path d="M596.348 463.199L319.811 0V226.414C332.774 226.414 338.823 228.143 350.058 234.192V109.75L557.46 456.285L501.288 508.136L546.226 509L596.348 463.199Z" fill="url(#paint2_linear_7_91)"/>
<path d="M319.811 272.216C319.811 326.659 315.051 401.237 386.353 437.273L398.451 410.484C341.416 374.188 350.058 296.413 350.058 283.45C445.981 337.029 415.735 446.779 373.39 476.161V508.136H470.178L501.288 476.161H415.735C470.178 426.903 458.08 264.438 319.811 242.834V272.216Z" fill="url(#paint3_linear_7_91)"/>
<defs>
<linearGradient id="paint0_linear_7_91" x1="4.32088" y1="1.74044e-06" x2="276.537" y2="509.864" gradientUnits="userSpaceOnUse">
<stop offset="0.607292" stop-color="#183D8A"/>
<stop offset="1" stop-color="#9BB0DA"/>
</linearGradient>
<linearGradient id="paint1_linear_7_91" x1="4.32088" y1="1.74044e-06" x2="276.537" y2="509.864" gradientUnits="userSpaceOnUse">
<stop offset="0.607292" stop-color="#183D8A"/>
<stop offset="1" stop-color="#9BB0DA"/>
</linearGradient>
<linearGradient id="paint2_linear_7_91" x1="319.745" y1="6.04924" x2="596.282" y2="509.864" gradientUnits="userSpaceOnUse">
<stop offset="0.398958" stop-color="#183D8A"/>
<stop offset="1" stop-color="#9BB0DA"/>
</linearGradient>
<linearGradient id="paint3_linear_7_91" x1="319.745" y1="6.04924" x2="596.282" y2="509.864" gradientUnits="userSpaceOnUse">
<stop offset="0.398958" stop-color="#183D8A"/>
<stop offset="1" stop-color="#9BB0DA"/>
</linearGradient>
</defs>
</svg>
