<svg width="606" height="521" viewBox="0 0 606 521" fill="none" xmlns="http://www.w3.org/2000/svg">
<path d="M250.799 292.007L281.23 280.75M250.799 292.007C250.799 304.995 259.493 382.924 202.108 419.29L214.281 446.132C286.019 410.025 281.23 335.301 281.23 280.75M250.799 292.007C154.288 345.691 184.719 455.657 227.323 485.097V517.134H129.942L98.6416 485.097H184.719C129.942 435.742 142.115 272.958 281.23 251.311V280.75M281.23 8L3 472.109L53.4292 518L98.6416 517.134L42.1261 465.182L250.799 117.966V242.652C262.102 236.591 268.188 234.859 281.23 234.859V8Z" stroke="url(#paint0_linear_41_4)" stroke-width="4"/>
<path d="M355.201 292.007L324.77 280.75M355.201 292.007C355.201 304.995 346.507 382.924 403.892 419.29L391.719 446.132C319.981 410.025 324.77 335.3 324.77 280.75M355.201 292.007C451.712 345.691 421.281 455.657 378.677 485.097V517.134H476.058L507.358 485.097H421.281C476.058 435.742 463.885 272.958 324.77 251.311V280.75M324.77 8L603 472.109L552.571 518L507.358 517.134L563.874 465.182L355.201 117.966V242.652C343.898 236.591 337.812 234.859 324.77 234.859V8Z" stroke="url(#paint1_linear_41_4)" stroke-width="4"/>
<defs>
<linearGradient id="paint0_linear_41_4" x1="247.488" y1="228.432" x2="435.54" y2="518.712" gradientUnits="userSpaceOnUse">
<stop stop-color="#183D8A"/>
<stop offset="1" stop-color="#9BB0DA"/>
</linearGradient>
<linearGradient id="paint1_linear_41_4" x1="324.96" y1="8" x2="629.96" y2="519.114" gradientUnits="userSpaceOnUse">
<stop offset="0.203799" stop-color="#183D8A"/>
<stop offset="1" stop-color="#9BB0DA"/>
</linearGradient>
</defs>
</svg>
