<svg width="602" height="520" viewBox="0 0 602 520" fill="none" xmlns="http://www.w3.org/2000/svg">
<path d="M3 471.199L279.536 8V234.414C266.574 234.414 260.525 236.143 249.29 242.192V117.75L41.8879 464.285L98.0594 516.136L53.1222 517L3 471.199Z" fill="url(#paint0_linear_7_85)"/>
<path d="M279.536 280.216C279.536 334.659 284.296 409.237 212.995 445.273L200.896 418.484C257.932 382.188 249.29 304.413 249.29 291.45C153.367 345.029 183.613 454.779 225.958 484.161V516.136H129.17L98.0594 484.161H183.613C129.17 434.903 141.268 272.438 279.536 250.834V280.216Z" fill="url(#paint1_linear_7_85)"/>
<path d="M249.29 291.45L279.537 280.216M249.29 291.45C249.29 304.413 257.932 382.188 200.896 418.484L212.995 445.273C284.296 409.237 279.537 334.659 279.537 280.216M249.29 291.45C153.367 345.029 183.613 454.779 225.958 484.161V516.136H129.17L98.0594 484.161H183.613C129.17 434.903 141.268 272.438 279.537 250.834V280.216M279.537 8L3 471.199L53.1222 517L98.0594 516.136L41.8879 464.285L249.29 117.75V242.192C260.525 236.143 266.574 234.414 279.537 234.414V8Z" stroke="white" stroke-width="4"/>
<path d="M599.348 471.199L322.811 8V234.414C335.774 234.414 341.823 236.143 353.058 242.192V117.75L560.46 464.285L504.288 516.136L549.226 517L599.348 471.199Z" fill="url(#paint2_linear_7_85)"/>
<path d="M322.811 280.216C322.811 334.659 318.051 409.237 389.353 445.273L401.451 418.484C344.416 382.188 353.058 304.413 353.058 291.45C448.981 345.029 418.735 454.779 376.39 484.161V516.136H473.178L504.288 484.161H418.735C473.178 434.903 461.08 272.438 322.811 250.834V280.216Z" fill="url(#paint3_linear_7_85)"/>
<path d="M353.058 291.45L322.811 280.216M353.058 291.45C353.058 304.413 344.416 382.188 401.451 418.484L389.353 445.273C318.051 409.237 322.811 334.659 322.811 280.216M353.058 291.45C448.981 345.029 418.735 454.779 376.39 484.161V516.136H473.178L504.288 484.161H418.735C473.178 434.903 461.08 272.438 322.811 250.834V280.216M322.811 8L599.348 471.199L549.226 517L504.288 516.136L560.46 464.285L353.058 117.75V242.192C341.823 236.143 335.774 234.414 322.811 234.414V8Z" stroke="white" stroke-width="4"/>
<defs>
<linearGradient id="paint0_linear_7_85" x1="7.32088" y1="8" x2="279.537" y2="517.864" gradientUnits="userSpaceOnUse">
<stop offset="0.607292" stop-color="#183D8A"/>
<stop offset="1" stop-color="#9BB0DA"/>
</linearGradient>
<linearGradient id="paint1_linear_7_85" x1="7.32088" y1="8" x2="279.537" y2="517.864" gradientUnits="userSpaceOnUse">
<stop offset="0.607292" stop-color="#183D8A"/>
<stop offset="1" stop-color="#9BB0DA"/>
</linearGradient>
<linearGradient id="paint2_linear_7_85" x1="322.745" y1="14.0492" x2="599.282" y2="517.864" gradientUnits="userSpaceOnUse">
<stop offset="0.398958" stop-color="#183D8A"/>
<stop offset="1" stop-color="#9BB0DA"/>
</linearGradient>
<linearGradient id="paint3_linear_7_85" x1="322.745" y1="14.0492" x2="599.282" y2="517.864" gradientUnits="userSpaceOnUse">
<stop offset="0.398958" stop-color="#183D8A"/>
<stop offset="1" stop-color="#9BB0DA"/>
</linearGradient>
</defs>
</svg>
