<svg width="50" height="50" viewBox="0 0 50 50" fill="none" xmlns="http://www.w3.org/2000/svg">
<g clip-path="url(#clip0_79_145)">
<path d="M18.7498 39.5833C8.33317 42.7083 8.33317 34.375 4.1665 33.3333M33.3332 45.8333V37.7708C33.4113 36.7774 33.2771 35.7788 32.9395 34.8412C32.6018 33.9037 32.0684 33.0488 31.3748 32.3333C37.9165 31.6042 44.7915 29.125 44.7915 17.75C44.791 14.8413 43.6721 12.0442 41.6665 9.93751C42.6162 7.39273 42.5491 4.57991 41.479 2.08335C41.479 2.08335 39.0207 1.35418 33.3332 5.16668C28.5582 3.87256 23.5248 3.87256 18.7498 5.16668C13.0623 1.35418 10.604 2.08335 10.604 2.08335C9.53395 4.57991 9.4668 7.39273 10.4165 9.93751C8.39594 12.0598 7.27593 14.8822 7.2915 17.8125C7.2915 29.1042 14.1665 31.5833 20.7082 32.3958C20.0227 33.1041 19.4941 33.9488 19.1567 34.8748C18.8193 35.8009 18.6807 36.7876 18.7498 37.7708V45.8333" stroke="white" stroke-width="5" stroke-linecap="round" stroke-linejoin="round"/>
</g>
<defs>
<clipPath id="clip0_79_145">
<rect width="50" height="50" fill="white"/>
</clipPath>
</defs>
</svg>
