<svg width="50" height="50" viewBox="0 0 50 50" fill="none" xmlns="http://www.w3.org/2000/svg">
<path d="M18.75 23.4377V34.3752C18.75 34.9968 18.5031 35.5929 18.0635 36.0325C17.624 36.472 17.0279 36.7189 16.4062 36.7189C15.7846 36.7189 15.1885 36.472 14.749 36.0325C14.3094 35.5929 14.0625 34.9968 14.0625 34.3752V23.4377C14.0625 22.8161 14.3094 22.22 14.749 21.7804C15.1885 21.3409 15.7846 21.0939 16.4062 21.0939C17.0279 21.0939 17.624 21.3409 18.0635 21.7804C18.5031 22.22 18.75 22.8161 18.75 23.4377ZM24.2188 36.7189C24.8404 36.7189 25.4365 36.472 25.876 36.0325C26.3156 35.5929 26.5625 34.9968 26.5625 34.3752V28.9064C26.5625 28.0776 26.8917 27.2828 27.4778 26.6967C28.0638 26.1107 28.8587 25.7814 29.6875 25.7814C30.5163 25.7814 31.3112 26.1107 31.8972 26.6967C32.4833 27.2828 32.8125 28.0776 32.8125 28.9064V34.3752C32.8125 34.9968 33.0594 35.5929 33.499 36.0325C33.9385 36.472 34.5346 36.7189 35.1562 36.7189C35.7779 36.7189 36.374 36.472 36.8135 36.0325C37.2531 35.5929 37.5 34.9968 37.5 34.3752V28.9064C37.5009 27.5618 37.1544 26.2397 36.4942 25.0682C35.834 23.8968 34.8824 22.9157 33.7317 22.22C32.5809 21.5243 31.27 21.1377 29.926 21.0974C28.5819 21.0572 27.2502 21.3648 26.0599 21.9904C25.7591 21.607 25.3461 21.3269 24.8786 21.1893C24.4111 21.0516 23.9123 21.0633 23.4517 21.2226C22.9911 21.3819 22.5916 21.6809 22.309 22.0779C22.0264 22.475 21.8747 22.9503 21.875 23.4377V34.3752C21.875 34.9968 22.1219 35.5929 22.5615 36.0325C23.001 36.472 23.5971 36.7189 24.2188 36.7189ZM45.3125 8.59375V41.4062C45.3113 42.4419 44.8994 43.4348 44.1671 44.1671C43.4348 44.8994 42.4419 45.3113 41.4062 45.3125H8.59375C7.55811 45.3113 6.56522 44.8994 5.8329 44.1671C5.10059 43.4348 4.68867 42.4419 4.6875 41.4062V8.59375C4.68866 7.5581 5.10058 6.56521 5.8329 5.8329C6.56521 5.10058 7.5581 4.68866 8.59375 4.6875H41.4062C42.4419 4.68866 43.4348 5.10058 44.1671 5.8329C44.8994 6.56521 45.3113 7.5581 45.3125 8.59375ZM40.625 9.375H9.375V40.625H40.625V9.375ZM16.4062 18.75C17.0243 18.75 17.6285 18.5667 18.1424 18.2233C18.6563 17.88 19.0569 17.3919 19.2934 16.8209C19.5299 16.2499 19.5918 15.6215 19.4712 15.0153C19.3506 14.4092 19.053 13.8523 18.616 13.4153C18.1789 12.9783 17.6221 12.6806 17.0159 12.56C16.4097 12.4395 15.7814 12.5014 15.2104 12.7379C14.6393 12.9744 14.1513 13.3749 13.8079 13.8888C13.4645 14.4027 13.2812 15.0069 13.2812 15.625C13.2813 16.4538 13.6105 17.2486 14.1966 17.8347C14.7826 18.4207 15.5775 18.75 16.4062 18.75Z" fill="white"/>
</svg>
