<svg width="26" height="24" viewBox="0 0 26 24" fill="none" xmlns="http://www.w3.org/2000/svg">
<path d="M12.964 2.08728C19.5715 2.08728 24.928 6.87297 24.928 12.7764C24.928 15.3042 23.9459 17.6271 22.304 19.4571M4.81709 4.9484C2.46888 6.90007 1 9.68498 1 12.7764C1 15.5834 2.21104 18.1377 4.19178 20.045" stroke="white" stroke-width="2"/>
<path d="M4.52941 8.92834V17.159C4.15055 16.5354 3.06431 14.7806 3.09373 13.204C3.11367 12.1351 3.09373 9.78347 4.52941 8.92834Z" fill="white"/>
<path d="M20.1424 19.0296H13.1435V4.27856C24.5093 5.34748 24.4495 16.1969 20.1424 19.0296Z" fill="white"/>
<path d="M24.8281 20.0985H11.7275C12.1103 3.72272 11.5679 -0.1218 11.2489 0.00290617H4.01068C3.34069 0.515984 4.7684 2.14073 5.566 2.88897V21.2743C2.55107 23.1128 2.91398 23.8575 3.4723 24H21.837C25.187 21.1353 25.2269 20.2054 24.8281 20.0985Z" fill="white"/>
</svg>
