<svg width="50" height="50" viewBox="0 0 50 50" fill="none" xmlns="http://www.w3.org/2000/svg">
<path d="M47.9168 6.25001C45.9218 7.65726 43.7129 8.73358 41.3752 9.43752C40.1205 7.99483 38.4529 6.97229 36.5981 6.50819C34.7434 6.0441 32.7908 6.16084 31.0045 6.84263C29.2182 7.52441 27.6844 8.73835 26.6105 10.3203C25.5367 11.9022 24.9745 13.7757 25.0002 15.6875V17.7708C21.339 17.8658 17.7112 17.0538 14.4398 15.4072C11.1684 13.7606 8.35499 11.3305 6.25016 8.33335C6.25016 8.33335 -2.08317 27.0833 16.6668 35.4167C12.3763 38.3291 7.26507 39.7895 2.0835 39.5834C20.8335 50 43.7502 39.5834 43.7502 15.625C43.7482 15.0447 43.6924 14.4658 43.5835 13.8958C45.7098 11.799 47.2102 9.1515 47.9168 6.25001Z" fill="white" stroke="white" stroke-width="2" stroke-linecap="round" stroke-linejoin="round"/>
</svg>
